<?xml version="1.0" standalone="no"?>
<!DOCTYPE svg PUBLIC "-//W3C//DTD SVG 20010904//EN"
 "http://www.w3.org/TR/2001/REC-SVG-20010904/DTD/svg10.dtd">
<svg version="1.0" xmlns="http://www.w3.org/2000/svg"
 width="946.000000pt" height="480.000000pt" viewBox="0 0 946.000000 480.000000"
 preserveAspectRatio="xMidYMid meet">
<metadata>
Created by potrace 1.11, written by Peter Selinger 2001-2013
</metadata>
<g transform="translate(0.000000,480.000000) scale(0.100000,-0.100000)"
fill="#000000" stroke="none">
<path d="M465 4676 c-103 -33 -211 -117 -262 -204 -57 -96 -77 -232 -52 -341
37 -162 178 -303 340 -340 29 -7 548 -11 1479 -11 1570 0 1497 -3 1600 57 157
92 236 241 228 428 -3 82 -8 101 -41 167 -47 97 -118 168 -216 216 l-75 37
-1480 2 c-1177 1 -1489 -1 -1521 -11z"/>
<path d="M6770 4676 c-107 -25 -160 -62 -194 -136 -21 -44 -21 -56 -24 -862
l-3 -818 -797 -2 -798 -3 -49 -26 c-102 -52 -135 -155 -135 -424 0 -322 51
-428 220 -455 40 -6 352 -10 812 -10 l747 0 3 -812 3 -813 28 -58 c32 -64 79
-98 169 -123 75 -21 314 -29 426 -15 156 19 222 54 268 141 18 33 19 77 22
857 l2 822 813 3 c637 3 821 7 852 17 58 19 116 84 140 156 28 85 35 426 10
530 -22 94 -55 148 -113 182 l-47 28 -827 3 -828 2 -2 823 -3 822 -24 49 c-30
61 -88 99 -182 120 -85 20 -406 21 -489 2z"/>
<path d="M479 2845 c-161 -44 -292 -178 -328 -336 -25 -109 -5 -245 52 -341
37 -64 128 -145 199 -178 35 -16 95 -34 133 -40 95 -13 2774 -13 2870 0 155
23 282 115 351 256 34 68 39 86 42 169 7 152 -37 265 -140 360 -60 56 -136 98
-209 114 -70 17 -2911 13 -2970 -4z"/>
<path d="M495 1016 c-120 -30 -211 -92 -274 -186 -180 -271 -43 -631 270 -705
56 -13 251 -15 1479 -15 1533 0 1479 -2 1588 54 303 154 327 593 44 783 -126
85 14 78 -1612 80 -1135 1 -1456 -1 -1495 -11z"/>
</g>
</svg>
