<?xml version="1.0" standalone="no"?>
<!DOCTYPE svg PUBLIC "-//W3C//DTD SVG 20010904//EN"
 "http://www.w3.org/TR/2001/REC-SVG-20010904/DTD/svg10.dtd">
<svg version="1.0" xmlns="http://www.w3.org/2000/svg"
 width="775.000000pt" height="762.000000pt" viewBox="0 0 775.000000 762.000000"
 preserveAspectRatio="xMidYMid meet">
<metadata>
Created by potrace 1.11, written by Peter Selinger 2001-2013
</metadata>
<g transform="translate(0.000000,762.000000) scale(0.100000,-0.100000)"
fill="#000000" stroke="none">
<path d="M1015 7489 c-253 -32 -499 -183 -646 -395 -47 -68 -105 -198 -131
-294 l-23 -85 0 -2885 0 -2885 23 -85 c50 -182 137 -327 272 -452 141 -131
326 -216 522 -238 64 -8 970 -10 2908 -8 l2815 3 97 27 c351 97 598 358 673
711 22 103 22 5751 0 5854 -75 352 -323 614 -673 711 l-97 27 -2835 1 c-1567
1 -2866 -2 -2905 -7z m3562 -2167 l703 703 395 -395 395 -395 -702 -702 -703
-703 703 -703 702 -702 -395 -395 -395 -395 -700 700 -700 700 -698 -698
c-383 -383 -702 -697 -707 -697 -13 0 -785 772 -785 785 0 5 314 324 697 707
l698 698 -700 700 -700 700 395 395 395 395 700 -700 700 -700 702 702z"/>
</g>
</svg>
