<?xml version="1.0" standalone="no"?>
<!DOCTYPE svg PUBLIC "-//W3C//DTD SVG 20010904//EN"
 "http://www.w3.org/TR/2001/REC-SVG-20010904/DTD/svg10.dtd">
<svg version="1.0" xmlns="http://www.w3.org/2000/svg"
 width="477.000000pt" height="626.000000pt" viewBox="0 0 477.000000 626.000000"
 preserveAspectRatio="xMidYMid meet">
<metadata>
Created by potrace 1.11, written by Peter Selinger 2001-2013
</metadata>
<g transform="translate(0.000000,626.000000) scale(0.100000,-0.100000)"
fill="#000000" stroke="none">
<path d="M1930 6019 c-91 -15 -173 -62 -232 -132 -104 -126 -281 -317 -297
-321 -9 -3 -43 -10 -76 -16 -565 -109 -1110 -390 -1231 -635 -26 -54 -29 -70
-29 -155 0 -88 3 -101 34 -165 68 -139 244 -281 482 -387 978 -436 2773 -418
3679 37 202 102 342 221 402 342 29 60 33 79 36 165 3 86 1 103 -21 151 -28
62 -124 168 -211 233 -231 174 -605 327 -1001 409 -85 17 -124 30 -135 44 -8
10 -86 98 -172 194 -174 194 -206 216 -329 236 -78 13 -820 13 -899 0z m868
-288 c51 -26 78 -56 407 -451 159 -190 297 -355 308 -367 l20 -23 -260 0 -261
0 -192 205 -191 205 -247 0 -247 0 -190 -205 -190 -204 -258 -1 c-204 0 -257
3 -251 13 5 6 158 190 340 408 268 319 341 400 376 418 42 20 55 21 421 21
353 0 380 -1 415 -19z"/>
<path d="M365 3703 c3 -16 80 -685 171 -1488 187 -1661 157 -1488 281 -1588
383 -308 1124 -502 1748 -458 505 36 972 178 1300 397 92 61 191 158 199 195
5 21 336 2944 336 2961 0 4 -55 -20 -122 -51 -520 -247 -1254 -376 -2023 -358
-723 18 -1347 147 -1795 372 -49 25 -92 45 -95 45 -2 0 -2 -12 0 -27z"/>
</g>
</svg>
