<?xml version="1.0" standalone="no"?>
<!DOCTYPE svg PUBLIC "-//W3C//DTD SVG 20010904//EN"
 "http://www.w3.org/TR/2001/REC-SVG-20010904/DTD/svg10.dtd">
<svg version="1.0" xmlns="http://www.w3.org/2000/svg"
 width="658.000000pt" height="583.000000pt" viewBox="0 0 658.000000 583.000000"
 preserveAspectRatio="xMidYMid meet">
<metadata>
Created by potrace 1.11, written by Peter Selinger 2001-2013
</metadata>
<g transform="translate(0.000000,583.000000) scale(0.100000,-0.100000)"
fill="#000000" stroke="none">
<path d="M2650 4800 l0 -780 -504 -2 -503 -3 789 -740 c434 -407 793 -739 799
-738 5 2 363 335 795 740 l786 738 -501 3 -501 2 0 780 0 780 -580 0 -580 0 0
-780z"/>
<path d="M854 2382 c-269 -181 -514 -352 -545 -381 -68 -63 -114 -149 -130
-247 -11 -67 -9 -81 80 -569 50 -275 99 -521 107 -547 17 -53 85 -134 149
-178 23 -16 69 -38 103 -49 l61 -21 2545 0 c2469 0 2546 1 2605 19 112 35 205
111 250 205 23 51 201 1016 201 1094 0 93 -63 235 -132 299 -13 11 -251 174
-530 362 l-507 341 -297 -2 -297 -3 507 -389 c279 -214 509 -393 512 -397 3
-5 -247 -9 -555 -9 l-560 0 -17 -23 c-9 -12 -71 -173 -138 -357 l-123 -335
-916 -3 c-504 -1 -917 0 -917 2 0 13 -253 693 -261 701 -6 6 -219 12 -576 15
l-566 5 508 390 c280 215 513 393 519 397 6 4 -124 8 -290 8 l-300 0 -490
-328z"/>
</g>
</svg>
