<?xml version="1.0" standalone="no"?>
<!DOCTYPE svg PUBLIC "-//W3C//DTD SVG 20010904//EN"
 "http://www.w3.org/TR/2001/REC-SVG-20010904/DTD/svg10.dtd">
<svg version="1.0" xmlns="http://www.w3.org/2000/svg"
 width="985.000000pt" height="842.000000pt" viewBox="0 0 985.000000 842.000000"
 preserveAspectRatio="xMidYMid meet">
<metadata>
Created by potrace 1.11, written by Peter Selinger 2001-2013
</metadata>
<g transform="translate(0.000000,842.000000) scale(0.100000,-0.100000)"
fill="#000000" stroke="none">
<path d="M3950 8170 c-335 -22 -739 -198 -1285 -557 -649 -428 -1134 -803
-1197 -926 -11 -22 -31 -101 -44 -176 -43 -241 -132 -375 -310 -463 -80 -39
-85 -41 -223 -48 -108 -6 -149 -12 -178 -27 -66 -34 -406 -311 -430 -351 -27
-44 -29 -84 -5 -133 14 -31 577 -666 665 -751 28 -27 104 -58 142 -58 12 0 37
5 55 12 42 14 373 302 382 332 3 11 6 48 7 81 2 89 26 232 50 296 29 75 86
138 176 195 197 122 383 131 584 29 127 -64 214 -136 424 -347 224 -225 214
-219 279 -179 54 33 780 694 789 718 5 14 7 35 3 46 -3 11 -57 83 -118 161
-292 367 -354 465 -377 600 -47 276 140 554 561 830 271 179 533 309 1075 536
315 132 366 160 318 174 -31 9 -1223 15 -1343 6z"/>
<path d="M7715 8007 c-725 -327 -1111 -653 -1195 -1009 -31 -134 -41 -244 -50
-583 -11 -415 -33 -538 -128 -720 -72 -137 -151 -225 -779 -876 l-44 -46 307
-357 c169 -196 310 -355 314 -354 4 2 187 173 406 382 220 208 426 398 460
422 126 90 317 169 465 194 109 17 247 12 381 -14 479 -96 829 -21 1102 235
124 115 251 306 307 459 37 103 74 258 93 400 49 347 43 918 -10 1082 -29 89
-96 111 -156 50 -28 -28 -171 -245 -412 -625 -76 -120 -160 -242 -188 -272
-129 -141 -297 -200 -470 -164 -29 6 -93 30 -143 54 -217 103 -422 295 -486
457 -17 44 -20 69 -17 148 3 89 6 101 50 190 55 111 225 418 374 672 112 191
119 214 86 278 -19 39 -53 60 -97 60 -16 0 -93 -29 -170 -63z"/>
<path d="M4163 5347 c-42 -15 -712 -599 -736 -641 -21 -35 -18 -93 6 -129 31
-48 3821 -4354 3854 -4379 65 -50 172 -60 247 -21 39 19 483 391 525 438 45
51 65 131 51 197 -6 29 -17 63 -24 76 -7 13 -865 1015 -1907 2227 -1491 1736
-1903 2208 -1935 2225 -46 23 -39 22 -81 7z"/>
<path d="M2644 1996 c-946 -916 -1184 -1152 -1198 -1185 -23 -59 -21 -154 5
-208 24 -49 490 -509 537 -530 15 -7 52 -12 84 -13 115 0 70 -40 1310 1180
623 613 1133 1119 1133 1124 0 13 -668 775 -680 775 -5 0 -541 -514 -1191
-1143z"/>
</g>
</svg>
